#!OML:ASF C:\ViconDB\ViconDB\414\Spring2016\041811\Spring2016.ASF
:FULLY-SPECIFIED
:DEGREES
380
root 10.163 18.2743 -45.4334 -181.647 -2.11957 -176.424
lowerback 0.348519 -0.242514 1.61688
upperback 1.94257 -0.477874 2.32654
thorax 1.80404 -0.279772 1.47224
lowerneck -12.4643 -2.61913 -8.51346
upperneck 22.8686 -6.39591 12.8437
head 9.96901 -2.88368 5.10833
rclavicle -5.31749e-015 9.93923e-015
rhumerus -42.645 -19.6964 -80.6882
rradius 32.0024
rwrist 41.779
rhand -33.5032 -14.0478
rfingers 7.12502
rthumb -6.69995 -43.9218
lclavicle -5.31749e-015 9.93923e-015
lhumerus -36.1789 5.95069 86.4018
lradius 20.885
lwrist -39.0184
lhand -27.496 15.1046
lfingers 7.12502
lthumb -0.899171 45.0824
rfemur 174.422 64.5692 -150.177
rtibia 31.9531
rfoot -77.7741 -45.3106
rtoes -3.73715e-014
lfemur -6.97157 6.44497 -9.04192
ltibia 60.6113
lfoot -0.902517 -2.472
ltoes 1.145e-013
381
root 10.1809 18.2891 -45.579 -181.67 -1.99096 -176.47
lowerback 0.383767 -0.105819 1.54036
upperback 2.07029 -0.300386 2.30576
thorax 1.91319 -0.193236 1.49607
lowerneck -12.5567 -2.57361 -8.49274
upperneck 22.8526 -6.31304 12.855
head 9.97074 -2.83306 5.11967
rclavicle 4.57205e-015 -1.35174e-014
rhumerus -41.7519 -19.078 -81.2353
rradius 32.3101
rwrist 41.2262
rhand -33.3739 -13.8812
rfingers 7.12502
rthumb -6.57521 -43.7591
lclavicle 4.57205e-015 -1.35174e-014
lhumerus -36.1785 5.34214 86.8586
lradius 21.0169
lwrist -35.9762
lhand -26.2607 15.0372
lfingers 7.12502
lthumb 0.293991 45.0167
rfemur 173.319 65.1226 -151.037
rtibia 32.0156
rfoot -78.2605 -45.0134
rtoes 8.74653e-015
lfemur -8.47126 6.94799 -8.92273
ltibia 62.0582
lfoot -1.92437 -0.963666
ltoes -3.81667e-014
382
root 10.1977 18.305 -45.7244 -181.695 -1.79369 -176.617
lowerback 0.46438 0.0711849 1.43901
upperback 2.1586 -0.0603237 2.21292
thorax 1.95477 -0.0733555 1.46076
lowerneck -12.6286 -2.5918 -8.41309
upperneck 22.8124 -6.34181 12.873
head 9.97296 -2.83124 5.10735
rclavicle -4.07509e-015 1.05356e-014
rhumerus -40.9198 -18.3421 -81.8883
rradius 32.5908
rwrist 40.5262
rhand -33.6398 -14.1802
rfingers 7.12502
rthumb -6.83187 -44.05
lclavicle -4.07509e-015 1.05356e-014
lhumerus -36.4245 5.95117 86.3193
lradius 20.3021
lwrist -39.6849
lhand -25.9639 15.5129
lfingers 7.12502
lthumb 0.580599 45.4919
rfemur 172.112 65.5166 -152.1
rtibia 32.0989
rfoot -78.7184 -44.798
rtoes -5.88403e-014
lfemur -9.86307 7.47621 -8.99641
ltibia 63.1804
lfoot -2.96344 0.48879
ltoes 6.04305e-014
383
root 10.213 18.3191 -45.8714 -181.806 -1.5945 -176.817
lowerback 0.606508 0.104201 1.10933
upperback 2.20649 -0.00641112 2.12768
thorax 1.92273 -0.0498359 1.55869
lowerneck -12.4505 -2.48158 -8.22128
upperneck 22.7507 -6.25266 12.8948
head 9.89962 -2.78421 5.09099
rclavicle -2.41026e-015 -4.03533e-014
rhumerus -40.1677 -17.4115 -82.5897
rradius 32.801
rwrist 40.0186
rhand -33.879 -14.3534
rfingers 7.12502
rthumb -7.06278 -44.2156
lclavicle -2.41026e-015 -4.03533e-014
lhumerus -36.8919 6.57475 85.7459
lradius 20.0148
lwrist -41.4956
lhand -25.6544 15.5631
lfingers 7.12502
lthumb 0.879545 45.541
rfemur 170.572 65.8365 -153.545
rtibia 32.1829
rfoot -78.9714 -44.5401
rtoes 8.26944e-014
lfemur -11.0498 7.89167 -9.14581
ltibia 63.9685
lfoot -3.96557 1.85164
ltoes 9.22361e-014
384
root 10.2313 18.332 -46.0199 -181.92 -1.57462 -176.971
lowerback 0.753423 0.193112 0.918944
upperback 2.28021 0.116864 2.05061
thorax 1.91306 0.00936938 1.58746
lowerneck -12.4114 -2.50817 -8.20237
upperneck 22.7388 -6.29924 12.902
head 9.89352 -2.80504 5.08405
rclavicle -1.77664e-015 -3.06128e-014
rhumerus -39.4011 -16.9412 -83.0049
rradius 33.0257
rwrist 39.7723
rhand -33.96 -14.4162
rfingers 7.12502
rthumb -7.14097 -44.2757
lclavicle -1.77664e-015 -3.06128e-014
lhumerus -37.2156 7.1331 85.314
lradius 19.7692
lwrist -42.4125
lhand -25.5105 15.3761
lfingers 7.12502
lthumb 1.01853 45.3534
rfemur 169.011 66.4227 -154.957
rtibia 32.2619
rfoot -79.3096 -44.1269
rtoes 6.36111e-015
lfemur -12.2251 8.09359 -9.29584
ltibia 64.4668
lfoot -5.05693 2.92787
ltoes 2.22639e-014
385
root 10.2376 18.3485 -46.1628 -181.883 -1.26485 -177.162
lowerback 0.860144 0.406088 0.889505
upperback 2.26879 0.410983 1.92683
thorax 1.83566 0.159389 1.47873
lowerneck -12.3553 -2.55302 -8.26993
upperneck 22.7239 -6.36292 12.951
head 9.88908 -2.83751 5.10564
rclavicle -3.14328e-015 -2.16675e-014
rhumerus -38.686 -16.4492 -83.3582
rradius 33.2538
rwrist 39.3724
rhand -33.8473 -14.3387
rfingers 7.12502
rthumb -7.03219 -44.2019
lclavicle -3.14328e-015 -2.16675e-014
lhumerus -37.6412 7.27756 85.0929
lradius 19.7735
lwrist -42.7868
lhand -24.5942 15.2975
lfingers 7.12502
lthumb 1.90347 45.2687
rfemur 167.846 66.4157 -156.114
rtibia 32.3298
rfoot -79.4146 -43.9483
rtoes 2.46493e-014
lfemur -13.4938 8.4436 -9.64536
ltibia 64.6816
lfoot -5.99932 3.89616
ltoes -1.55847e-013
386
root 10.2479 18.362 -46.3082 -181.891 -1.07033 -177.292
lowerback 0.976061 0.577983 0.850764
upperback 2.27062 0.64786 1.82248
thorax 1.76848 0.279658 1.39389
lowerneck -12.3237 -2.57644 -8.28606
upperneck 22.7294 -6.40116 12.9718
head 9.891 -2.85556 5.11154
rclavicle -3.91357e-015 -1.37161e-014
rhumerus -37.9922 -16.034 -83.7159
rradius 33.535
rwrist 38.9871
rhand -33.7592 -14.2966
rfingers 7.12502
rthumb -6.94708 -44.1626
lclavicle -3.91357e-015 -1.37161e-014
lhumerus -37.9834 7.01113 85.0765
lradius 19.5565
lwrist -42.912
lhand -24.3805 15.3677
lfingers 7.12502
lthumb 2.10993 45.337
rfemur 166.491 66.5135 -157.369
rtibia 32.4088
rfoot -79.4792 -43.7454
rtoes 1.03368e-013
lfemur -14.6455 8.63116 -9.87976
ltibia 64.6324
lfoot -6.79227 4.52364
ltoes 3.68944e-013
387
root 10.2594 18.372 -46.453 -181.907 -0.934531 -177.45
lowerback 1.09418 0.715698 0.745907
upperback 2.27866 0.837498 1.74197
thorax 1.70654 0.374552 1.36965
lowerneck -12.2024 -2.76859 -8.87607
upperneck 22.6354 -6.70365 13.5221
head 9.91137 -3.00414 5.37632
rclavicle -9.08197e-015 -2.08724e-014
rhumerus -37.2593 -15.5425 -84.007
rradius 33.7046
rwrist 38.8951
rhand -33.8731 -14.4874
rfingers 7.12502
rthumb -7.0571 -44.3498
lclavicle -9.08197e-015 -2.08724e-014
lhumerus -38.2565 7.14737 84.898
lradius 19.3239
lwrist -43.1859
lhand -24.4406 15.3581
lfingers 7.12502
lthumb 2.0518 45.328
rfemur 165.094 66.6812 -158.694
rtibia 32.4947
rfoot -79.6029 -43.6006
rtoes 4.37326e-014
lfemur -15.7259 8.6733 -10.2108
ltibia 64.3015
lfoot -7.84943 5.05338
ltoes -5.725e-014
388
root 10.2661 18.3773 -46.5955 -181.929 -0.723753 -177.545
lowerback 1.20515 0.897246 0.762085
upperback 2.30568 1.08325 1.65408
thorax 1.66947 0.498838 1.26984
lowerneck -12.1874 -2.82719 -9.03172
upperneck 22.6193 -6.77702 13.6305
head 9.92174 -3.04027 5.43427
rclavicle -7.26806e-015 -6.16232e-015
rhumerus -36.5274 -15.1978 -84.2944
rradius 33.9971
rwrist 38.5009
rhand -33.9705 -14.4807
rfingers 7.12502
rthumb -7.15106 -44.3399
lclavicle -7.26806e-015 -6.16232e-015
lhumerus -38.6712 7.32658 84.6787
lradius 19.4222
lwrist -43.4362
lhand -24.3534 15.2621
lfingers 7.12502
lthumb 2.13605 45.2311
rfemur 163.711 66.8839 -159.95
rtibia 32.5741
rfoot -79.8652 -43.4066
rtoes 4.92986e-014
lfemur -16.7141 8.72797 -10.4525
ltibia 63.7286
lfoot -8.80267 5.42191
ltoes 6.36111e-015
389
root 10.2712 18.379 -46.7379 -181.976 -0.548275 -177.699
lowerback 1.31953 0.933378 0.616584
upperback 2.28895 1.13951 1.53219
thorax 1.58656 0.527728 1.22434
lowerneck -12.1222 -2.6667 -8.7548
upperneck 22.6875 -6.57252 13.4271
head 9.88889 -2.94566 5.33895
rclavicle 4.73356e-015 3.57812e-014
rhumerus -35.8772 -14.7196 -84.7006
rradius 34.248
rwrist 38.5481
rhand -33.8143 -14.3193
rfingers 7.12502
rthumb -7.00029 -44.1835
lclavicle 4.73356e-015 3.57812e-014
lhumerus -39.2231 7.3929 84.4195
lradius 19.5893
lwrist -43.0375
lhand -24.3387 15.4238
lfingers 7.12502
lthumb 2.15027 45.3927
rfemur 162.209 67.0689 -161.387
rtibia 32.6761
rfoot -80.0136 -43.2703
rtoes -8.66701e-014
lfemur -17.6236 8.64017 -10.8518
ltibia 62.9033
lfoot -9.96324 5.69
ltoes -2.51264e-013
390
root 10.2774 18.3894 -46.88 -182.034 -0.40582 -177.784
lowerback 1.47016 1.00933 0.56128
upperback 2.3292 1.24275 1.44521
thorax 1.54235 0.578991 1.16388
lowerneck -12.0862 -2.5893 -8.61242
upperneck 22.5485 -6.41077 13.2834
head 9.80211 -2.86532 5.27868
rclavicle -2.17048e-014 -2.60408e-014
rhumerus -35.112 -14.2377 -85.0525
rradius 34.5299
rwrist 38.3226
rhand -33.7852 -14.2597
rfingers 7.12502
rthumb -6.97222 -44.1249
lclavicle -2.17048e-014 -2.60408e-014
lhumerus -39.6248 7.40608 84.2672
lradius 19.7551
lwrist -42.5889
lhand -24.4912 15.2061
lfingers 7.12502
lthumb 2.00296 45.1765
rfemur 160.696 67.259 -162.802
rtibia 32.7313
rfoot -80.1178 -42.8773
rtoes 8.82604e-014
lfemur -18.4709 8.37123 -11.1512
ltibia 61.8459
lfoot -10.8436 6.10554
ltoes 8.26944e-014
